<svg width="110" height="16" viewBox="0 0 110 16" fill="none" xmlns="http://www.w3.org/2000/svg">
<path d="M0.582031 15V0.908203H3.96094L7.88672 11.1816H8.0332L11.9492 0.908203H15.3379V15H12.7109V5.42969H11.2754L14.1172 1.29883L8.88281 15H7.03711L1.80273 1.29883L4.63477 5.42969H3.20898V15H0.582031ZM19.5117 15V0.908203H28.8477V3.33984H22.4609V6.73828H28.4863V9.01367H22.4609V12.5684H28.8477V15H19.5117ZM32.7188 15V0.908203H35.668V12.5684H41.9082V15H32.7188ZM51.1504 15.332C49.7572 15.332 48.5527 15.0326 47.5371 14.4336C46.5215 13.8346 45.737 12.985 45.1836 11.8848C44.6367 10.778 44.3633 9.4694 44.3633 7.95898V7.93945C44.3633 6.42253 44.64 5.11393 45.1934 4.01367C45.7533 2.91341 46.541 2.06706 47.5566 1.47461C48.5723 0.875651 49.7702 0.576172 51.1504 0.576172C52.5371 0.576172 53.7383 0.875651 54.7539 1.47461C55.7695 2.06706 56.554 2.91667 57.1074 4.02344C57.6608 5.1237 57.9375 6.42904 57.9375 7.93945V7.95898C57.9375 9.4694 57.6608 10.778 57.1074 11.8848C56.5605 12.985 55.7793 13.8346 54.7637 14.4336C53.748 15.0326 52.5436 15.332 51.1504 15.332ZM51.1504 12.832C51.9186 12.832 52.5859 12.6335 53.1523 12.2363C53.7188 11.8327 54.1549 11.2663 54.4609 10.5371C54.7734 9.80143 54.9297 8.94206 54.9297 7.95898V7.93945C54.9297 6.94987 54.7734 6.09049 54.4609 5.36133C54.1549 4.63216 53.7188 4.06901 53.1523 3.67188C52.5859 3.27474 51.9186 3.07617 51.1504 3.07617C50.3887 3.07617 49.7246 3.27474 49.1582 3.67188C48.5918 4.06901 48.1523 4.63216 47.8398 5.36133C47.5273 6.08398 47.3711 6.94336 47.3711 7.93945V7.95898C47.3711 8.94857 47.5241 9.80794 47.8301 10.5371C48.1426 11.2663 48.582 11.8327 49.1484 12.2363C49.7148 12.6335 50.3822 12.832 51.1504 12.832ZM61.5156 15V0.908203H67.0234C68.4232 0.908203 69.6178 1.18164 70.6074 1.72852C71.597 2.26888 72.3522 3.05664 72.873 4.0918C73.3939 5.12695 73.6543 6.38346 73.6543 7.86133V7.88086C73.6543 9.39128 73.3939 10.6771 72.873 11.7383C72.3587 12.7995 71.6068 13.61 70.6172 14.1699C69.6276 14.7233 68.4297 15 67.0234 15H61.5156ZM64.4648 12.5684H66.584C67.4564 12.5684 68.1953 12.3926 68.8008 12.041C69.4062 11.6829 69.8652 11.1589 70.1777 10.4688C70.4902 9.77214 70.6465 8.92253 70.6465 7.91992V7.90039C70.6465 6.93034 70.487 6.10677 70.168 5.42969C69.849 4.74609 69.3835 4.22852 68.7715 3.87695C68.166 3.51888 67.4368 3.33984 66.584 3.33984H64.4648V12.5684ZM77.2422 15V0.908203H80.1914V15H77.2422ZM84.3555 15V0.908203H86.8457L94.1992 11.1621L92.0312 9.93164H93.4473V0.908203H96.2988V15H93.8281L86.4551 4.69727L88.623 5.9375H87.207V15H84.3555ZM100.473 15V0.908203H109.809V3.33984H103.422V6.73828H109.447V9.01367H103.422V12.5684H109.809V15H100.473Z" fill="white"/>
</svg>
