<svg width="149" height="36" viewBox="0 0 149 36" fill="none" xmlns="http://www.w3.org/2000/svg">
<g clip-path="url(#clip0_9_28)">
<path d="M0 35.6844C1.29424 32.7982 2.31386 28.2494 2.70544 22.2357L3.33349 12.23L1.68581 7.99686H6.62375L15.2486 30.1864L23.2454 7.99686H28.5368C27.9494 8.78706 27.1637 9.8569 26.617 10.9627L27.5578 27.4952C27.7918 31.6078 28.5368 33.9809 29.4013 35.6819H21.7579C22.9733 33.8218 23.2861 30.4994 23.131 27.4952L22.386 14.5621C21.1706 16.5402 19.5254 19.7446 18.31 23.1055L15.2537 31.6103V35.6844H12.4313L3.7632 13.3358L3.21398 21.5636C2.74358 28.801 4.39125 33.3113 5.60412 35.6844H0Z" fill="white"/>
<path d="M49.7073 26.1123C49.6285 31.4128 45.4737 36 39.9866 36C34.4994 36 29.9124 31.6488 29.9124 25.8737C29.9124 20.0986 34.4994 15.5909 40.0654 15.5909C44.2609 15.5909 47.8664 18.2796 47.8664 23.1465H34.146C34.1078 23.6212 34.0672 24.0958 34.0672 24.5704C34.0672 29.2372 37.6346 32.362 41.947 32.362C46.2594 32.362 49.0412 29.8298 49.6311 26.1123H49.7099H49.7073ZM34.1841 22.7514H38.4177C42.4556 22.7514 43.8668 21.3275 43.8668 19.0724C43.8668 17.3714 42.3767 16.0656 40.1824 16.0656C37.126 16.0656 34.7715 18.8338 34.1841 22.7489V22.7514Z" fill="white"/>
<path d="M50.0201 10.9242L55.9395 7.99686V28.7625C55.9395 32.5596 56.8015 34.8532 57.783 35.6844H51.5889L51.8254 17.0148C51.8636 13.5744 50.9228 11.7939 50.0226 11.0807V10.9216L50.0201 10.9242Z" fill="white"/>
<path d="M68.4445 15.5909C73.9317 15.5909 78.5187 20.1782 78.5187 25.8737C78.5187 31.5693 74.0487 36 68.6022 36C63.1557 36 58.4899 31.4128 58.4899 25.6762C58.4899 19.9396 62.9981 15.5909 68.4471 15.5909H68.4445ZM70.6008 35.2098C73.3443 35.2483 74.7555 32.5596 74.7555 29.3552C74.7555 24.1343 70.7584 16.3811 66.3672 16.3811C63.6617 16.3811 62.2912 19.0698 62.2912 22.1562C62.2912 27.3771 66.2502 35.0507 70.6008 35.2098Z" fill="white"/>
<path d="M88.0819 15.5909C91.1789 15.5909 93.1774 17.6485 93.9606 18.5978V17.0148C93.9987 13.5744 91.9036 3.79703 91.0009 3.08637V2.92731L96.9228 0L98.0798 28.7625C98.0798 32.5596 98.9418 34.8532 99.9232 35.6844H93.7292L93.7673 33.4704C92.8647 34.4196 91.1407 36.0026 88.0844 36.0026C84.0466 36.0026 79.7748 33.0368 79.7748 25.9969C79.7748 18.957 84.2449 15.5935 88.0844 15.5935L88.0819 15.5909ZM89.9635 34.6146C91.5705 34.6146 93.0198 33.5473 93.7648 32.7161L93.9606 19.4649C93.1774 18.2001 91.5298 16.8147 89.5312 16.8147C86.7876 16.8147 84.2398 19.742 84.278 25.6736C84.3161 32.0028 86.9834 34.612 89.9609 34.612L89.9635 34.6146Z" fill="white"/>
<path d="M100.549 18.5182L106.468 15.5909V28.7625C106.468 32.5596 107.33 34.8532 108.312 35.6844H102.118L102.354 24.6089C102.433 21.1685 101.451 19.388 100.551 18.6747V18.5157L100.549 18.5182ZM104.037 8.19441C105.644 8.19441 106.781 9.50028 106.781 11.0422C106.781 12.5841 105.644 13.8515 104.037 13.8515C102.43 13.8515 101.215 12.6251 101.215 11.0422C101.215 9.45924 102.468 8.19441 104.037 8.19441Z" fill="white"/>
<path d="M108.937 18.5182L114.857 15.5909V18.5182C116.11 16.8558 117.837 15.5909 120.189 15.5909C123.639 15.5909 124.971 17.5279 126.029 22.7899L127.402 29.5143C128.147 33.3498 129.284 34.8942 130.263 35.6844H124.109L121.679 22.9079C121.012 19.388 120.267 17.3304 118.348 17.2509C116.82 17.1713 115.838 18.0026 114.859 19.0698V28.76C114.859 32.557 115.721 34.8506 116.703 35.6819H110.509L110.745 24.6063C110.824 21.1659 109.842 19.3854 108.942 18.6722V18.5131L108.937 18.5182Z" fill="white"/>
<path d="M149 26.1123C148.921 31.4128 144.766 36 139.279 36C133.792 36 129.205 31.6488 129.205 25.8737C129.205 20.0986 133.792 15.5909 139.358 15.5909C143.554 15.5909 147.159 18.2796 147.159 23.1465H133.439C133.4 23.6212 133.36 24.0958 133.36 24.5704C133.36 29.2372 136.927 32.362 141.24 32.362C145.552 32.362 148.334 29.8298 148.924 26.1123H149.003H149ZM133.477 22.7514H137.71C141.748 22.7514 143.159 21.3275 143.159 19.0724C143.159 17.3714 141.669 16.0656 139.475 16.0656C136.416 16.0656 134.064 18.8338 133.477 22.7489V22.7514Z" fill="white"/>
</g>
<defs>
<clipPath id="clip0_9_28">
<rect width="149" height="36" fill="white"/>
</clipPath>
</defs>
</svg>
